<svg xmlns="http://www.w3.org/2000/svg" viewBox="0 0 131.94 123.45"><defs><style>.cls-1{fill:#5e4239;}.cls-2{fill:#b26620;}.cls-3{fill:#cc7b26;}.cls-4{fill:#e3dbd2;}.cls-5{fill:#411705;}</style></defs><title>Fox-orginal</title><g id="Lag_2" data-name="Lag 2"><g id="objects"><path class="cls-1" d="M22.18,19.18A28.52,28.52,0,0,1,33.64,32.27,50.63,50.63,0,0,1,42,28.58C33.17,10.15,16.34,0,16.34,0S4.6,18.49,12.68,56.4a57.13,57.13,0,0,1,7.17-12.29C17.64,26.86,22.18,19.18,22.18,19.18Z"/><path class="cls-2" d="M22.18,19.18s-4.55,7.68-2.34,24.94A45,45,0,0,1,33.64,32.27,28.52,28.52,0,0,0,22.18,19.18Z"/><path class="cls-3" d="M61.06,95.83A5.73,5.73,0,0,1,65.93,93H66a5.74,5.74,0,0,1,4.87,2.85c14.07-12.6,45.77-6.6,61.06-1.36-4.95-4.95-5.67-20.69-11.78-35.93a60.84,60.84,0,0,0-6.83-12.76A45.37,45.37,0,0,0,99.48,33,49.32,49.32,0,0,0,91.16,29c-6.62-2.42-15.53-3.87-25.24-4H65v0a73.44,73.44,0,0,0-23,3.51,50.63,50.63,0,0,0-8.4,3.69A45,45,0,0,0,19.85,44.12,57.13,57.13,0,0,0,12.68,56.4C5.74,72.29,5.18,89.3,0,94.48,15.29,89.24,47,83.23,61.06,95.83Z"/><path class="cls-4" d="M70.88,95.83A5.73,5.73,0,0,1,66,104.46h-.09a5.73,5.73,0,0,1-4.87-8.63C47,83.23,15.29,89.24,0,94.48c0,0,35.24,28.37,65,28.94v0h.91v0c29.8-.57,66-28.94,66-28.94C116.65,89.24,85,83.23,70.88,95.83Z"/><path class="cls-1" d="M111.23,19.18s4.84,8.17,2.1,26.61a60.84,60.84,0,0,1,6.83,12.76l.09.09c9-39.43-3.18-58.64-3.18-58.64S100,10.31,91.16,29A49.32,49.32,0,0,1,99.48,33,28.66,28.66,0,0,1,111.23,19.18Z"/><path class="cls-2" d="M111.23,19.18A28.66,28.66,0,0,0,99.48,33a45.37,45.37,0,0,1,13.85,12.83C116.07,27.35,111.23,19.18,111.23,19.18Z"/><path class="cls-1" d="M66,93h-.09a5.74,5.74,0,0,0,0,11.48H66A5.74,5.74,0,0,0,66,93Z"/><circle class="cls-5" cx="29.44" cy="80.55" r="3.6"/><circle class="cls-5" cx="102.5" cy="80.55" r="3.6"/><path class="cls-5" d="M69.08,113.75a3.8,3.8,0,1,0,0-7.6,1.46,1.46,0,1,0,0,2.91.89.89,0,1,1,0,1.77,1.46,1.46,0,0,0,0,2.91Z"/><path class="cls-5" d="M69.08,118.44a3.8,3.8,0,0,0,0-7.6,1.46,1.46,0,0,0,0,2.91.89.89,0,1,1,0,1.77,1.46,1.46,0,0,0,0,2.91Z"/></g></g></svg>